<svg id="icon" height="512" viewBox="0 0 128 128" width="512" xmlns="http://www.w3.org/2000/svg"><path d="m38.738 81.228h5.774v10.293h-5.774z" fill="#c1cdd3" transform="matrix(.707 .707 -.707 .707 73.268 -4.135)"/><path d="m40.028 93.055a1 1 0 0 1 -.707-.293l-4.083-4.083a1 1 0 0 1 0-1.414l7.278-7.278a1 1 0 0 1 1.414 0l4.083 4.083a1 1 0 0 1 0 1.414l-7.278 7.278a1 1 0 0 1 -.707.293zm-2.669-5.083 2.669 2.669 5.864-5.864-2.668-2.668z" fill="#2f3a5a"/><path d="m42.683 59.763h42.574v8.415h-42.574z" fill="#c1cdd3" transform="matrix(.707 .707 -.707 .707 63.97 -26.497)"/><path d="m76.047 83a1 1 0 0 1 -.707-.293l-30.1-30.1a1 1 0 0 1 0-1.414l5.951-5.951a1 1 0 0 1 1.414 0l30.1 30.1a1 1 0 0 1 0 1.414l-5.951 5.951a1 1 0 0 1 -.707.293zm-28.69-31.1 28.69 28.69 4.537-4.537-28.69-28.69z" fill="#2f3a5a"/><rect fill="#c1cdd3" height="17.583" rx="2.404" transform="matrix(.707 -.707 .707 .707 -16.017 68.346)" width="34.101" x="57.442" y="44.716"/><path d="m91.066 49.366-20.712 20.712a2.4 2.4 0 0 1 -3.4 0l-4.323-4.323a2.4 2.4 0 0 0 3.4-.008l20.704-20.712a2.4 2.4 0 0 0 .008-3.4l4.323 4.323a2.4 2.4 0 0 1 0 3.408z" fill="#d9e2e9"/><path d="m68.653 71.785a3.381 3.381 0 0 1 -2.407-1l-9.034-9.034a3.4 3.4 0 0 1 0-4.813l20.714-20.711a3.407 3.407 0 0 1 4.813 0l9.034 9.034a3.407 3.407 0 0 1 0 4.813l-20.713 20.714a3.379 3.379 0 0 1 -2.407.997zm11.68-34.555a1.4 1.4 0 0 0 -.993.411l-20.714 20.713a1.4 1.4 0 0 0 0 1.984l9.034 9.035a1.436 1.436 0 0 0 1.984 0l20.715-20.713a1.406 1.406 0 0 0 0-1.985l-9.034-9.034a1.4 1.4 0 0 0 -.992-.411z" fill="#2f3a5a"/><rect fill="#c1cdd3" height="26.776" rx="2.404" transform="matrix(.707 -.707 .707 .707 -27.78 63.474)" width="51.929" x="36.766" y="51.882"/><path d="m88.859 58.08-33.32 33.32a2.4 2.4 0 0 1 -3.4 0l-5.167-5.167a2.4 2.4 0 0 0 3.4-.008l33.32-33.32a2.4 2.4 0 0 0 .008-3.4l5.167 5.167a2.4 2.4 0 0 1 -.008 3.408z" fill="#d9e2e9"/><path d="m53.837 93.1a3.394 3.394 0 0 1 -2.407-1l-15.53-15.53a3.408 3.408 0 0 1 0-4.813l33.32-33.32a3.485 3.485 0 0 1 4.813 0l15.53 15.534a3.4 3.4 0 0 1 0 4.814l-33.319 33.315a3.392 3.392 0 0 1 -2.407 1zm17.786-53.66a1.392 1.392 0 0 0 -.992.411l-33.321 33.319a1.406 1.406 0 0 0 0 1.985l15.534 15.535a1.406 1.406 0 0 0 1.985 0l33.32-33.32a1.4 1.4 0 0 0 0-1.984l-15.534-15.535a1.4 1.4 0 0 0 -.992-.412z" fill="#2f3a5a"/><path d="m69.082 80.98h54.951v31.154h-54.951z" fill="#c1cdd3" transform="matrix(.707 .707 -.707 .707 96.557 -39.995)"/><path d="m104.971 128a1 1 0 0 1 -.707-.293l-38.856-38.856a1 1 0 0 1 0-1.414l22.029-22.029a1 1 0 0 1 1.414 0l38.856 38.856a1 1 0 0 1 0 1.414l-22.029 22.029a1 1 0 0 1 -.707.293zm-37.442-39.856 37.442 37.442 20.615-20.615-37.442-37.442z" fill="#2f3a5a"/><path d="m84.182 75.273h6.858v6.858h-6.858z" fill="#84879c" transform="matrix(.707 .707 -.707 .707 81.312 -38.899)"/><path d="m87.611 84.552a1 1 0 0 1 -.707-.293l-4.85-4.85a1 1 0 0 1 0-1.414l4.85-4.849a1 1 0 0 1 1.414 0l4.849 4.854a1 1 0 0 1 0 1.414l-4.849 4.85a1 1 0 0 1 -.707.288zm-3.435-5.852 3.436 3.436 3.434-3.436-3.435-3.435z" fill="#2f3a5a"/><path d="m93.116 84.207h6.858v6.858h-6.858z" fill="#84879c" transform="matrix(.707 .707 -.707 .707 90.245 -42.6)"/><path d="m96.545 93.485a1 1 0 0 1 -.707-.293l-4.849-4.849a1 1 0 0 1 0-1.414l4.849-4.85a1.029 1.029 0 0 1 1.414 0l4.849 4.85a1 1 0 0 1 0 1.414l-4.849 4.849a1 1 0 0 1 -.707.293zm-3.435-5.849 3.435 3.435 3.435-3.435-3.435-3.436z" fill="#2f3a5a"/><path d="m102.05 93.141h6.858v6.858h-6.858z" fill="#84879c" transform="matrix(.707 .707 -.707 .707 99.179 -46.3)"/><path d="m105.479 102.419a1 1 0 0 1 -.707-.293l-4.849-4.849a1 1 0 0 1 0-1.414l4.849-4.85a1.029 1.029 0 0 1 1.414 0l4.85 4.85a1 1 0 0 1 0 1.414l-4.85 4.849a1 1 0 0 1 -.707.293zm-3.435-5.849 3.435 3.43 3.436-3.435-3.436-3.436z" fill="#2f3a5a"/><path d="m110.983 102.074h6.858v6.858h-6.858z" fill="#84879c" transform="matrix(.707 .707 -.707 .707 108.113 -50)"/><path d="m114.412 111.353a1 1 0 0 1 -.707-.293l-4.849-4.849a1 1 0 0 1 0-1.414l4.849-4.85a1.029 1.029 0 0 1 1.414 0l4.85 4.85a1 1 0 0 1 0 1.414l-4.85 4.849a1 1 0 0 1 -.707.293zm-3.435-5.849 3.435 3.435 3.436-3.435-3.436-3.436z" fill="#2f3a5a"/><path d="m75.273 84.182h6.858v6.858h-6.858z" fill="#84879c" transform="matrix(.707 .707 -.707 .707 85.002 -29.99)"/><path d="m78.7 93.46a1 1 0 0 1 -.7-.293l-4.849-4.849a1 1 0 0 1 0-1.414l4.849-4.849a1.029 1.029 0 0 1 1.414 0l4.85 4.85a1 1 0 0 1 0 1.414l-4.85 4.849a1 1 0 0 1 -.714.292zm-3.435-5.849 3.435 3.435 3.436-3.435-3.436-3.435z" fill="#2f3a5a"/><path d="m84.207 93.116h6.858v6.858h-6.858z" fill="#84879c" transform="matrix(.707 .707 -.707 .707 93.936 -33.691)"/><path d="m87.636 102.394a1 1 0 0 1 -.707-.293l-4.85-4.849a1 1 0 0 1 0-1.414l4.85-4.849a1 1 0 0 1 1.414 0l4.849 4.849a1 1 0 0 1 0 1.414l-4.849 4.848a1 1 0 0 1 -.707.294zm-3.436-5.849 3.436 3.435 3.435-3.435-3.435-3.435z" fill="#2f3a5a"/><path d="m93.141 102.05h6.858v6.858h-6.858z" fill="#84879c" transform="matrix(.707 .707 -.707 .707 102.869 -37.391)"/><path d="m96.57 111.328a1 1 0 0 1 -.707-.293l-4.85-4.85a1 1 0 0 1 0-1.414l4.85-4.849a1 1 0 0 1 1.414 0l4.849 4.849a1 1 0 0 1 0 1.414l-4.849 4.85a1 1 0 0 1 -.707.293zm-3.436-5.85 3.436 3.436 3.43-3.435-3.435-3.435z" fill="#2f3a5a"/><path d="m102.074 110.983h6.858v6.858h-6.858z" fill="#84879c" transform="matrix(.707 .707 -.707 .707 111.803 -41.092)"/><path d="m105.5 120.262a1 1 0 0 1 -.707-.293l-4.85-4.85a1 1 0 0 1 0-1.414l4.85-4.849a1 1 0 0 1 1.414 0l4.849 4.849a1 1 0 0 1 0 1.414l-4.849 4.85a1 1 0 0 1 -.707.293zm-3.436-5.85 3.436 3.436 3.435-3.436-3.435-3.435z" fill="#2f3a5a"/><path d="m3.967 15.866h54.951v31.154h-54.951z" fill="#c1cdd3" transform="matrix(.707 .707 -.707 .707 31.443 -13.024)"/><path d="m39.856 62.885a1 1 0 0 1 -.707-.293l-38.856-38.856a1 1 0 0 1 0-1.414l22.029-22.029a1.029 1.029 0 0 1 1.414 0l38.856 38.856a1 1 0 0 1 0 1.414l-22.029 22.029a1 1 0 0 1 -.707.293zm-37.442-39.856 37.442 37.442 20.615-20.615-37.442-37.442z" fill="#2f3a5a"/><path d="m19.068 10.159h6.858v6.858h-6.858z" fill="#84879c" transform="matrix(.707 .707 -.707 .707 16.197 -11.928)"/><path d="m22.5 19.437a1 1 0 0 1 -.707-.293l-4.853-4.849a1 1 0 0 1 0-1.414l4.849-4.85a1.029 1.029 0 0 1 1.414 0l4.85 4.85a1 1 0 0 1 0 1.414l-4.853 4.849a1 1 0 0 1 -.7.293zm-3.435-5.849 3.435 3.435 3.436-3.435-3.436-3.436z" fill="#2f3a5a"/><path d="m28.001 19.092h6.858v6.858h-6.858z" fill="#84879c" transform="matrix(.707 .707 -.707 .707 25.131 -15.628)"/><path d="m31.43 28.371a1 1 0 0 1 -.707-.293l-4.849-4.849a1 1 0 0 1 0-1.414l4.849-4.85a1.029 1.029 0 0 1 1.414 0l4.85 4.85a1 1 0 0 1 0 1.414l-4.85 4.849a1 1 0 0 1 -.707.293zm-3.43-5.85 3.435 3.435 3.436-3.435-3.441-3.435z" fill="#2f3a5a"/><path d="m36.935 28.026h6.858v6.858h-6.858z" fill="#84879c" transform="matrix(.707 .707 -.707 .707 34.064 -19.329)"/><path d="m40.364 37.3a1 1 0 0 1 -.707-.293l-4.849-4.849a1 1 0 0 1 0-1.414l4.849-4.844a1 1 0 0 1 1.414 0l4.85 4.849a1 1 0 0 1 0 1.414l-4.85 4.849a1 1 0 0 1 -.707.288zm-3.435-5.849 3.435 3.435 3.436-3.431-3.436-3.435z" fill="#2f3a5a"/><path d="m45.869 36.96h6.858v6.858h-6.858z" fill="#84879c" transform="matrix(.707 .707 -.707 .707 42.998 -23.029)"/><path d="m49.3 46.238a1 1 0 0 1 -.707-.293l-4.85-4.85a1 1 0 0 1 0-1.414l4.85-4.849a1 1 0 0 1 1.414 0l4.849 4.849a1 1 0 0 1 0 1.414l-4.856 4.85a1 1 0 0 1 -.7.293zm-3.436-5.85 3.436 3.436 3.435-3.436-3.435-3.434z" fill="#2f3a5a"/><path d="m10.159 19.068h6.858v6.858h-6.858z" fill="#84879c" transform="matrix(.707 .707 -.707 .707 19.887 -3.019)"/><path d="m13.588 28.346a1 1 0 0 1 -.707-.293l-4.85-4.853a1 1 0 0 1 0-1.414l4.85-4.849a1 1 0 0 1 1.414 0l4.849 4.849a1 1 0 0 1 0 1.414l-4.849 4.85a1 1 0 0 1 -.707.296zm-3.436-5.846 3.436 3.436 3.435-3.436-3.435-3.435z" fill="#2f3a5a"/><path d="m19.092 28.001h6.858v6.858h-6.858z" fill="#84879c" transform="matrix(.707 .707 -.707 .707 28.821 -6.719)"/><path d="m22.521 37.28a1 1 0 0 1 -.707-.293l-4.85-4.85a1 1 0 0 1 0-1.414l4.85-4.849a1 1 0 0 1 1.414 0l4.849 4.849a1 1 0 0 1 0 1.414l-4.849 4.85a1 1 0 0 1 -.707.293zm-3.436-5.85 3.436 3.436 3.435-3.436-3.435-3.43z" fill="#2f3a5a"/><path d="m28.026 36.935h6.858v6.858h-6.858z" fill="#84879c" transform="matrix(.707 .707 -.707 .707 37.755 -10.42)"/><path d="m31.455 46.213a1 1 0 0 1 -.707-.293l-4.848-4.849a1 1 0 0 1 0-1.414l4.849-4.849a1 1 0 0 1 1.414 0l4.849 4.849a1 1 0 0 1 0 1.414l-4.849 4.85a1 1 0 0 1 -.708.292zm-3.435-5.85 3.435 3.437 3.435-3.436-3.435-3.435z" fill="#2f3a5a"/><path d="m36.96 45.869h6.858v6.858h-6.858z" fill="#84879c" transform="matrix(.707 .707 -.707 .707 46.688 -14.12)"/><path d="m40.389 55.147a1 1 0 0 1 -.707-.293l-4.849-4.854a1 1 0 0 1 0-1.414l4.849-4.85a1.029 1.029 0 0 1 1.414 0l4.85 4.85a1 1 0 0 1 0 1.414l-4.846 4.854a1 1 0 0 1 -.711.293zm-3.435-5.847 3.435 3.435 3.435-3.435-3.436-3.436z" fill="#2f3a5a"/><path d="m39.644 115.919a19.5 19.5 0 0 0 -27.563-27.563z" fill="#c1cdd3"/><path d="m39.647 115.923-6.741-6.741a19.545 19.545 0 0 0 2.636-23.453 19.514 19.514 0 0 1 4.1 30.194z" fill="#d9e2e9"/><path d="m39.644 116.919a1 1 0 0 1 -.707-.293l-27.563-27.563a1 1 0 0 1 .018-1.431 20.5 20.5 0 0 1 28.977 28.977 1 1 0 0 1 -.712.311zm-26.112-28.526 26.075 26.075a18.5 18.5 0 0 0 -26.075-26.075z" fill="#2f3a5a"/><path d="m19.993 109.007a1 1 0 0 1 -.707-1.707l5.87-5.87a1 1 0 0 1 1.414 1.414l-5.87 5.87a1 1 0 0 1 -.707.293z" fill="#2f3a5a"/><circle cx="18.581" cy="109.346" fill="#c1cdd3" r="3.729" transform="matrix(.707 -.707 .707 .707 -71.877 45.166)"/><g fill="#2f3a5a"><path d="m18.581 114.073a4.728 4.728 0 1 1 3.344-8.073 4.727 4.727 0 0 1 -3.344 8.071zm0-7.455a2.728 2.728 0 1 0 1.93.8 2.722 2.722 0 0 0 -1.93-.8z"/><path d="m16 127.7a15.785 15.785 0 0 1 -15.771-15.769 1 1 0 0 1 2 0 13.783 13.783 0 0 0 13.771 13.769 1 1 0 1 1 0 2z"/><path d="m16 123.255a11.337 11.337 0 0 1 -11.328-11.324 1 1 0 0 1 2 0 9.335 9.335 0 0 0 9.328 9.324 1 1 0 0 1 0 2z"/><path d="m16 118.4a6.477 6.477 0 0 1 -6.47-6.47 1 1 0 0 1 2 0 4.474 4.474 0 0 0 4.47 4.47 1 1 0 1 1 0 2z"/></g></svg>