<svg id="Layer_1" enable-background="new 0 0 505.023 505.023" height="512" viewBox="0 0 505.023 505.023" width="512" xmlns="http://www.w3.org/2000/svg"><path d="m190.611 47.976c-96.488 0-96.449 409.071 0 409.071 96.495 0 96.507-409.071 0-409.071z" fill="#80b9ed"/><path d="m494.124 267.119c-48.432-59.87-122.261-96.391-201.958-96.391h-154.363c-8.152 0-15 6.129-15.902 14.231-5.11 45.931-5.017 99.193 1.518 147.448 1.075 7.934 7.849 13.853 15.855 13.853h317.077c40.871.001 63.458-47.389 37.773-79.141z" fill="#e0e0e0"/><path d="m494.124 267.119c-2.773-3.428-5.649-6.778-8.6-10.062-48.203-1.882-111.157 4.133-180.834 32.217-59.745 24.081-125.716 24.497-184.236 15.918.782 9.255 1.763 18.344 2.964 27.215 1.075 7.934 7.849 13.853 15.855 13.853h317.077c40.872.001 63.459-47.389 37.774-79.141z" fill="#d3d1d1"/><path d="m487.644 259.452c-49.332-56.385-120.581-88.723-195.478-88.723h-35.842c-12.483 0-20.181 13.72-13.631 24.377 34.676 56.424 96.263 90.881 162.546 90.881h70.363c13.706.001 21.084-16.199 12.042-26.535z" fill="#494949"/><path d="m165.527 137.46c33.127 13.417 62.748 16.864 88.881 13.936-7.097-38.56-24.377-103.421-63.797-103.421-27.749 0-47.058 33.06-58.704 79.403 10.549 1.984 21.741 5.271 33.62 10.082z" fill="#8bc4ff"/><path d="m128.868 364.463c11.181 53.132 31.426 92.584 61.743 92.584 22.731 0 39.797-22.187 51.629-55.682-40.782-18.007-69.09-32.654-113.372-36.902z" fill="#8bc4ff"/><path d="m291.325 170.729c21.426 40.489 66.252 81.4 158.956 53.71-44.451-34.117-99.513-53.71-158.956-53.71z" fill="#5b5b5b"/><path d="m494.124 267.119c-48.432-59.87-122.261-96.391-201.958-96.391h-136.18c2.567-17.187 5.961-33.031 10.121-46.952 10.759-36.007 22.239-43.801 24.504-43.801 2.797 0 16.575 10.11 28.029 56.818 2.105 8.582 10.769 13.833 19.35 11.729 8.583-2.104 13.833-10.768 11.729-19.35-13.026-53.119-33.466-81.196-59.108-81.196-35.826 0-57.586 55.095-66.945 122.753h-92.308c-8.836 0-16 7.164-16 16s7.164 16 16 16h88.861c-3.019 38.177-2.411 76.69 1.071 111.532h-19.39c-8.836 0-16 7.164-16 16s7.164 16 16 16h23.575c10.198 62.068 31.447 110.787 65.135 110.787s54.941-48.717 65.139-110.787h200.602c40.871 0 63.458-47.39 37.773-79.142zm-58.094-13.131c-35.183 0-67.447 2.691-108.412-20.264-14.648-8.208-27.889-18.705-39.209-30.995 57.149 0 106.598 17.836 147.621 51.259zm-220.914 127.257c-10.759 36.007-22.24 43.802-24.505 43.802s-13.746-7.794-24.504-43.801c-3.174-10.623-5.895-22.381-8.151-34.985h65.31c-2.256 12.603-4.976 24.362-8.15 34.984zm241.236-66.984h-302.899c-3.866-36.113-4.159-75.592-1.136-111.532h95.346c35.561 52.075 94.465 83.259 157.576 83.259h62.959c.346.422.704.834 1.047 1.258 8.788 10.861 1.097 27.015-12.893 27.015z"/><path d="m56.105 314.261h-14.594c-8.836 0-16 7.164-16 16s7.164 16 16 16h14.594c8.836 0 16-7.164 16-16s-7.164-16-16-16z"/><path d="m108.783 281.884c0-8.836-7.164-16-16-16h-76.783c-8.836 0-16 7.164-16 16s7.164 16 16 16h76.783c8.836 0 16-7.164 16-16z"/><path d="m76.233 248.345c8.836 0 16-7.164 16-16s-7.164-16-16-16h-15.746c-8.836 0-16 7.164-16 16s7.164 16 16 16z"/></svg>